<?xml version="1.0" standalone="no"?>
<!DOCTYPE svg PUBLIC "-//W3C//DTD SVG 20010904//EN"
 "http://www.w3.org/TR/2001/REC-SVG-20010904/DTD/svg10.dtd">
<svg version="1.0" xmlns="http://www.w3.org/2000/svg"
 width="512.000000pt" height="512.000000pt" viewBox="0 0 512.000000 512.000000"
 preserveAspectRatio="xMidYMid meet">
<metadata>
Created by potrace 1.16, written by Peter Selinger 2001-2019
</metadata>
<g transform="translate(0.000000,512.000000) scale(0.100000,-0.100000)"
fill="#000000" stroke="none">
<path d="M2455 3817 c-49 -27 -1553 -1740 -1586 -1805 -31 -63 -24 -156 17
-214 61 -88 186 -120 279 -72 30 15 215 220 714 790 371 423 677 770 680 771
3 1 310 -345 681 -770 499 -570 685 -776 715 -791 92 -48 218 -16 279 72 37
52 47 145 23 204 -8 20 -361 432 -786 917 -575 657 -781 886 -810 901 -57 28
-152 27 -206 -3z"/>
</g>
</svg>
