<?xml version="1.0" standalone="no"?>
<!DOCTYPE svg PUBLIC "-//W3C//DTD SVG 20010904//EN"
 "http://www.w3.org/TR/2001/REC-SVG-20010904/DTD/svg10.dtd">
<svg version="1.0" xmlns="http://www.w3.org/2000/svg"
 width="512.000000pt" height="512.000000pt" viewBox="0 0 512.000000 512.000000"
 preserveAspectRatio="xMidYMid meet">
<metadata>
Created by potrace 1.16, written by Peter Selinger 2001-2019
</metadata>
<g transform="translate(0.000000,512.000000) scale(0.100000,-0.100000)"
fill="#000000" stroke="none">
<path d="M872 3500 c-48 -29 -72 -75 -72 -138 0 -29 6 -65 14 -80 18 -33 1642
-1655 1673 -1671 28 -14 118 -14 146 0 31 16 1655 1638 1673 1671 8 15 14 51
14 80 0 97 -61 158 -158 158 -29 0 -63 -5 -75 -11 -12 -6 -361 -349 -774 -763
l-753 -751 -752 751 c-414 414 -763 757 -775 763 -36 18 -124 13 -161 -9z"/>
</g>
</svg>
