<?xml version="1.0" encoding="iso-8859-1"?>
<!-- Uploaded to: SVG Repo, www.svgrepo.com, Generator: SVG Repo Mixer Tools -->
<svg height="800px" width="800px" version="1.1" id="Layer_1" xmlns="http://www.w3.org/2000/svg" xmlns:xlink="http://www.w3.org/1999/xlink" 
	 viewBox="0 0 512 512" xml:space="preserve">
<path style="fill:#FFD155;" d="M12.31,243.655C12.31,109.304,121.613,0,255.965,0c209.666,0,320.27,248.041,183.225,404.27
	c-7.168,8.173-19.722,8.513-27.342,0.895l-9.699-9.696c-7.318-7.318-7.32-19.185-0.003-26.505l11.789-11.793l-94.452-25.308
	l31.704,118.281c2.515,9.38-2.551,19.128-11.674,22.459C180.807,530.56,12.31,412.713,12.31,243.655z"/>
<path style="fill:#FFBE00;" d="M256.036,0.001v487.526c27.487-0.017,55.631-4.754,83.479-14.924
	c9.123-3.331,14.188-13.079,11.674-22.459l-31.704-118.281l94.452,25.308l-11.789,11.793c-7.318,7.32-7.316,19.186,0.003,26.505
	l9.699,9.696c7.62,7.62,20.173,7.278,27.342-0.895C576.219,248.057,465.656,0.056,256.036,0.001z"/>
<path style="fill:#FFE49C;" d="M74.786,243.655c0-99.902,81.277-181.179,181.179-181.179c143.595,0,229.851,159.88,152.001,279.695
	c-4.424,6.807-12.728,9.992-20.568,7.892l-67.913-18.199l15.424,57.556c2.449,9.136-2.294,18.665-11.059,22.22
	C204.941,459.867,74.786,371.456,74.786,243.655z"/>
<g>
	<path style="fill:#FFD155;" d="M256.036,62.477v362.512c22.368,0.009,45.291-4.215,67.812-13.35
		c8.765-3.555,13.508-13.084,11.059-22.22l-15.424-57.556l67.913,18.199c7.841,2.1,16.144-1.085,20.568-7.892
		C485.804,222.376,399.589,62.529,256.036,62.477z"/>
	<path style="fill:#FFD155;" d="M255.965,224.912c-12.601,0-23.05-10.243-23.291-22.834c-0.116-6.065,2.249-11.882,6.659-16.377
		c13.835-14.102,39.926-7.233,39.926,13.074c0,10.351,8.392,18.743,18.743,18.743s18.743-8.392,18.743-18.743
		c0-26.433-17.799-48.771-42.037-55.702v-8.822c0-10.351-8.392-18.743-18.743-18.743c-10.351,0-18.743,8.392-18.743,18.743v9.824
		c-24.89,8.358-42.546,31.58-42.026,58.72c0.629,32.865,27.889,59.602,60.769,59.602c12.601,0,23.049,10.243,23.29,22.832
		c0.561,29.354-46.586,32.534-46.586,3.304c0-10.351-8.392-18.743-18.743-18.743s-18.743,8.392-18.743,18.743
		c0,26.433,17.799,48.772,42.037,55.702v8.822c0,10.351,8.392,18.743,18.743,18.743c10.351,0,18.743-8.392,18.743-18.743v-9.824
		c24.889-8.357,42.545-31.579,42.026-58.72C316.105,251.649,288.845,224.912,255.965,224.912z"/>
</g>
<g>
	<path style="fill:#FFBE00;" d="M279.26,198.776c0,10.351,8.392,18.743,18.743,18.743s18.743-8.392,18.743-18.743
		c0-26.433-17.799-48.771-42.037-55.702v-8.822c0-10.327-8.354-18.7-18.671-18.739v62.795
		C267.795,177.768,279.26,185.315,279.26,198.776z"/>
	<path style="fill:#FFBE00;" d="M256.036,224.913V262.4c12.569,0.039,22.979,10.264,23.22,22.83
		c0.281,14.734-11.457,22.869-23.22,23.625v62.94c10.318-0.039,18.671-8.412,18.671-18.739v-9.824
		c24.889-8.357,42.545-31.579,42.026-58.72C316.107,251.673,288.883,224.952,256.036,224.913z"/>
</g>
<path style="fill:#48AEE2;" d="M422.068,506.51l-52.228-52.227l-21.489,21.489c-4.734,4.736-11.637,6.586-18.108,4.849
	c-13.917-3.732-9.5,0.725-55.37-170.415c-3.734-13.928,9.045-26.681,22.955-22.956l157.161,42.109
	c13.926,3.731,18.586,21.17,8.407,31.355l-21.488,21.495l52.225,52.237c7.318,7.32,7.318,19.185-0.001,26.505l-45.557,45.557
	C441.255,513.829,429.386,513.831,422.068,506.51z"/>
</svg>