<?xml version="1.0" encoding="utf-8"?><!-- Uploaded to: SVG Repo, www.svgrepo.com, Generator: SVG Repo Mixer Tools -->
<svg width="800px" height="800px" viewBox="0 0 40 40" fill="none" xmlns="http://www.w3.org/2000/svg">
<rect width="40" height="40" rx="8" fill="#000000" fill-opacity="0.4"/>
<path d="M19.0433 8.33334C13.1279 8.33334 8.33334 13.1279 8.33334 19.0429C8.33334 24.9579 13.1279 29.7524 19.0433 29.7524C24.9574 29.7524 29.7524 24.9574 29.7524 19.0424C29.7524 13.1283 24.9583 8.33334 19.0433 8.33334Z" fill="white"/>
<path d="M22.4258 21.425C22.6827 21.1683 23.0265 21.0171 23.3894 21.0014C23.7523 20.9856 24.1078 21.1065 24.386 21.3401L24.4789 21.425L31.576 28.5225C31.8401 28.7873 31.9918 29.1437 31.9997 29.5175C32.0075 29.8914 31.8708 30.2539 31.6181 30.5294C31.3654 30.805 31.0161 30.9725 30.643 30.9969C30.2698 31.0213 29.9017 30.9009 29.6152 30.6606L29.5222 30.5757L22.4251 23.4782C22.1529 23.2059 22 22.8366 22 22.4516C22 22.0666 22.1536 21.6973 22.4258 21.425Z" fill="white"/>
<path fill-rule="evenodd" clip-rule="evenodd" d="M13.5612 20.8407C14.0648 20.614 14.6568 20.8386 14.8835 21.3422C15.2025 22.051 15.7151 22.6554 16.3624 23.0857C17.0097 23.5161 17.7653 23.755 18.5424 23.7748C19.0945 23.789 19.5306 24.248 19.5164 24.8001C19.5023 25.3522 19.0433 25.7883 18.4912 25.7742C17.3377 25.7447 16.216 25.3901 15.2551 24.7512C14.2942 24.1124 13.5332 23.2152 13.0597 22.163C12.833 21.6594 13.0576 21.0673 13.5612 20.8407Z" fill="#B5B5B5"/>
</svg>